<svg version="1.1" id="Layer_1" xmlns="http://www.w3.org/2000/svg" xmlns:xlink="http://www.w3.org/1999/xlink" x="0px"
	y="0px" width="100%" viewBox="0 0 512 512" enable-background="new 0 0 512 512" xml:space="preserve">


	<path fill="#FFD580" opacity="1.000000" stroke="none" d="
M163.998154,272.834015 
	C159.278946,263.724792 154.477646,254.656998 149.857239,245.497940 
	C139.417908,224.804062 130.679489,203.427261 125.445091,180.796738 
	C121.326233,162.989151 120.567589,144.875931 123.043533,126.781342 
	C124.475166,116.318748 126.534744,105.895401 129.066925,95.640884 
	C132.976654,79.807785 140.583405,65.611961 150.089401,52.440125 
	C161.731201,36.308804 176.764191,24.026361 194.356018,15.026817 
	C205.976196,9.082216 218.284851,4.762623 231.336838,2.938013 
	C232.048477,2.838528 232.682907,2.186885 233.176636,1.396133 
	C240.687576,1.000000 248.375168,1.000000 256.531555,1.468657 
	C257.000214,29.830950 256.958374,57.724773 257.084717,85.617836 
	C257.094147,87.694122 258.309570,89.764946 258.510254,91.892860 
	C232.989426,89.951950 214.416687,113.403175 212.792267,131.463516 
	C210.206039,160.217148 235.234787,181.822113 257.001740,180.560669 
	C256.990387,250.956070 256.968170,320.889099 256.567993,390.883667 
	C252.401108,388.892792 247.832108,387.592896 244.980209,384.636566 
	C238.362076,377.776001 232.573212,370.115448 226.308670,362.460205 
	C220.162064,354.326782 214.154999,346.512360 208.043762,338.384705 
	C199.784637,326.328033 191.629654,314.584534 183.341583,302.509003 
	C177.883057,293.558929 172.590515,284.920258 167.197556,276.344727 
	C166.367935,275.025543 165.076187,273.996979 163.998154,272.834015 
z" />
	<path fill="#FFB52E" opacity="1.000000" stroke="none" d="
M256.945984,390.822113 
	C256.968170,320.889099 256.990387,250.956070 257.449463,180.501678 
	C267.691467,180.381866 275.958618,176.766113 283.809631,171.061661 
	C296.517670,161.828201 304.201324,143.050797 300.830841,127.808510 
	C296.417938,107.852226 279.199921,92.173431 258.964325,91.838310 
	C258.309570,89.764946 257.094147,87.694122 257.084717,85.617836 
	C256.958374,57.724773 257.000214,29.830950 257.000183,1.468657 
	C264.687592,1.000000 272.375153,1.000000 280.531372,0.999999 
	C283.085785,1.973228 285.078583,3.395792 287.271851,3.849600 
	C307.365540,8.007211 325.220673,16.715179 341.164062,29.580603 
	C356.676453,42.098225 368.471985,57.492050 377.110138,75.358337 
	C384.797455,91.257980 389.685730,108.018372 390.929779,125.638054 
	C391.770935,137.552094 393.279358,149.756805 391.627411,161.426361 
	C389.401520,177.150024 385.535706,192.870789 380.320129,207.879166 
	C374.816071,223.717712 367.046783,238.786469 359.961029,254.049438 
	C357.075897,260.264099 353.384644,266.104492 349.707611,272.589233 
	C343.203613,282.988342 337.052185,292.913391 330.615967,303.023499 
	C328.500916,306.102509 326.670654,308.996521 324.552795,312.066895 
	C305.774017,336.689392 287.449860,361.266022 268.582428,385.418243 
	C266.197479,388.471222 260.961060,389.296692 257.035919,391.066650 
	C257.026093,390.979065 256.945984,390.822113 256.945984,390.822113 
z" />
	<path fill="#BCDCFE" opacity="1.000000" stroke="none" d="
M330.900757,302.838501 
	C337.052185,292.913391 343.203613,282.988342 349.686890,272.941650 
	C368.672119,272.879944 387.334900,273.314148 405.975220,272.849030 
	C415.982147,272.599365 419.700287,277.445160 422.855164,284.589172 
	C429.770813,300.249084 436.324188,316.069275 442.996338,331.836334 
	C451.410400,351.719818 459.724304,371.645996 468.215973,391.496216 
	C474.702881,406.659973 481.489044,421.695740 487.978210,436.858551 
	C495.465271,454.352997 502.757996,471.930542 510.190460,489.448517 
	C510.678955,490.599854 511.638306,491.551422 512.689331,492.297943 
	C513.000000,495.692902 513.000000,499.385834 512.706116,503.243988 
	C509.941528,506.606171 507.470764,509.803101 505.000000,513.000000 
	C422.645782,513.000000 340.291534,513.000000 257.468658,512.531372 
	C256.979889,502.342285 256.959747,492.621857 257.065918,482.626404 
	C257.806519,481.844177 258.420868,481.337006 259.427368,480.905762 
	C261.587738,481.653961 263.348511,482.882690 265.125397,482.906433 
	C275.216400,483.041260 285.311249,482.888062 295.838654,482.889313 
	C317.748138,482.913940 339.223724,482.882111 361.187897,482.896301 
	C398.985626,482.942291 436.294830,482.942291 474.409302,482.942291 
	C467.064697,466.239594 460.120514,450.447510 453.115234,434.299133 
	C449.247620,424.922150 445.441132,415.901428 441.509033,406.518250 
	C427.135834,372.840363 412.917877,339.512054 398.538147,306.253723 
	C397.926178,304.838226 395.823456,303.154205 394.401093,303.141266 
	C377.245911,302.985138 360.088074,303.120575 342.477478,303.118286 
	C338.316254,302.983856 334.608521,302.911163 330.900757,302.838501 
z" />
	<path fill="#E0F4FE" opacity="1.000000" stroke="none" d="
M256.939636,482.901459 
	C256.959747,492.621857 256.979889,502.342285 257.000000,512.531372 
	C174.645767,513.000000 92.291542,513.000000 9.767624,512.714722 
	C7.095809,509.534729 4.603691,506.631042 2.060090,503.773193 
	C1.941483,503.639862 1.363850,503.915070 1.000000,504.000000 
	C1.000000,500.307098 1.000000,496.614166 1.000005,492.460632 
	C1.985842,491.125092 3.423205,490.442474 3.890023,489.346466 
	C11.363880,471.799530 18.616236,454.158051 26.119648,436.623962 
	C33.566765,419.221405 41.326107,401.952545 48.786678,384.555664 
	C56.303917,367.026642 63.553036,349.382690 71.048546,331.844177 
	C77.478584,316.798737 84.067436,301.820923 90.643166,286.838257 
	C91.859718,284.066376 93.190170,281.318695 94.748672,278.728699 
	C97.057465,274.891815 100.508575,272.964386 105.111862,272.976440 
	C124.431252,273.026978 143.750870,272.990936 163.534271,272.910309 
	C165.076187,273.996979 166.367935,275.025543 167.197556,276.344727 
	C172.590515,284.920258 177.883057,293.558929 182.839935,302.575317 
	C162.016968,302.982117 141.562531,303.001801 121.108139,302.983704 
	C118.740097,302.981598 116.862343,302.891632 115.621254,305.827667 
	C101.339828,339.612854 86.879326,373.322388 72.320030,407.345032 
	C66.048820,422.053619 59.924068,436.469177 53.601028,451.166748 
	C48.926464,461.778137 44.450184,472.107544 39.729866,483.000092 
	C42.287144,483.000092 44.086281,483.000092 45.885418,483.000092 
	C84.357735,483.000092 122.830055,483.016693 161.302368,482.993134 
	C180.952194,482.981110 200.602005,482.897095 220.702911,482.888306 
	C233.082535,482.921143 245.011093,482.911285 256.939636,482.901459 
z" />
	<path fill="#000000" opacity="1.000000" stroke="none" d="
M1.000000,504.491058 
	C1.363850,503.915070 1.941483,503.639862 2.060090,503.773193 
	C4.603691,506.631042 7.095809,509.534729 9.298966,512.714722 
	C6.411251,513.000000 3.822502,513.000000 1.000000,513.000000 
	C1.000000,510.329681 1.000000,507.655914 1.000000,504.491058 
z" />

	<path fill="#FCD942" opacity="1.000000" stroke="none" d="
M257.065918,482.626404 
	C245.011093,482.911285 233.082535,482.921143 220.564850,482.580566 
	C195.389526,457.627350 170.769684,433.058014 146.272644,408.366852 
	C143.985550,406.061615 142.284180,405.832245 139.472778,407.323456 
	C128.321762,413.238098 117.061699,418.949066 105.801857,424.656189 
	C88.485054,433.433319 71.135178,442.145203 53.799320,450.884735 
	C59.924068,436.469177 66.048820,422.053619 72.712814,407.465332 
	C76.538345,405.715790 79.859825,404.207916 83.105598,402.551666 
	C124.792671,381.279419 166.468933,359.985992 208.147934,338.697937 
	C214.154999,346.512360 220.162064,354.326782 225.972153,362.650757 
	C207.846756,372.410156 189.918320,381.660004 170.514297,391.671143 
	C172.960037,393.446686 174.619019,394.349884 175.903641,395.629028 
	C193.930023,413.578461 211.886841,431.597778 229.900909,449.559601 
	C238.842270,458.475006 247.865936,467.307831 256.911926,476.503113 
	C257.659363,478.162079 258.347260,479.495972 259.035187,480.829834 
	C258.420868,481.337006 257.806519,481.844177 257.065918,482.626404 
z" />
	<path fill="#0FAB61" opacity="1.000000" stroke="none" d="
M208.043762,338.384705 
	C166.468933,359.985992 124.792671,381.279419 83.105598,402.551666 
	C79.859825,404.207916 76.538345,405.715790 72.859268,407.172333 
	C86.879326,373.322388 101.339828,339.612854 115.621254,305.827667 
	C116.862343,302.891632 118.740097,302.981598 121.108139,302.983704 
	C141.562531,303.001801 162.016968,302.982117 182.973038,302.907349 
	C191.629654,314.584534 199.784637,326.328033 208.043762,338.384705 
z" />

	<path fill="#5DC983" opacity="1.000000" stroke="none" d="
M256.852386,476.177979 
	C247.865936,467.307831 238.842270,458.475006 229.900909,449.559601 
	C211.886841,431.597778 193.930023,413.578461 175.903641,395.629028 
	C174.619019,394.349884 172.960037,393.446686 170.514297,391.671143 
	C189.918320,381.660004 207.846756,372.410156 226.111694,362.969727 
	C232.573212,370.115448 238.362076,377.776001 244.980209,384.636566 
	C247.832108,387.592896 252.401108,388.892792 256.567993,390.883667 
	C256.945984,390.822113 257.026093,390.979065 257.016541,391.525055 
	C256.955444,420.106689 256.903931,448.142334 256.852386,476.177979 
z" />
	<path fill="#0EAB61" opacity="1.000000" stroke="none" d="
M256.911926,476.503113 
	C256.903931,448.142334 256.955444,420.106689 257.026367,391.612610 
	C260.961060,389.296692 266.197479,388.471222 268.582428,385.418243 
	C287.449860,361.266022 305.774017,336.689392 324.920837,312.172974 
	C331.361298,309.128510 337.146088,306.154266 342.930908,303.180054 
	C360.088074,303.120575 377.245911,302.985138 394.401093,303.141266 
	C395.823456,303.154205 397.926178,304.838226 398.538147,306.253723 
	C412.917877,339.512054 427.135834,372.840363 441.136902,406.662659 
	C411.810608,422.222687 382.713409,437.242188 353.657379,452.340881 
	C334.209595,462.446625 314.820251,472.664917 295.404785,482.832855 
	C285.311249,482.888062 275.216400,483.041260 265.125397,482.906433 
	C263.348511,482.882690 261.587738,481.653961 259.427368,480.905762 
	C258.347260,479.495972 257.659363,478.162079 256.911926,476.503113 
z" />
	<path fill="#F7BC2B" opacity="1.000000" stroke="none" d="
M342.477478,303.118286 
	C337.146088,306.154266 331.361298,309.128510 325.208435,311.996643 
	C326.670654,308.996521 328.500916,306.102509 330.615967,303.023499 
	C334.608521,302.911163 338.316254,302.983856 342.477478,303.118286 
z" />
	<path fill="#FABE2A" opacity="1.000000" stroke="none" d="
M295.838654,482.889313 
	C314.820251,472.664917 334.209595,462.446625 353.657379,452.340881 
	C382.713409,437.242188 411.810608,422.222687 441.262451,407.025116 
	C445.441132,415.901428 449.247620,424.922150 452.765259,434.451782 
	C440.830627,440.989594 429.166595,446.983643 417.543152,453.055328 
	C398.581268,462.960327 379.645874,472.915985 360.699341,482.850281 
	C339.223724,482.882111 317.748138,482.913940 295.838654,482.889313 
z" />
	<path fill="#169BE0" opacity="1.000000" stroke="none" d="
M361.187897,482.896301 
	C379.645874,472.915985 398.581268,462.960327 417.543152,453.055328 
	C429.166595,446.983643 440.830627,440.989594 452.826385,434.808044 
	C460.120514,450.447510 467.064697,466.239594 474.409302,482.942291 
	C436.294830,482.942291 398.985626,482.942291 361.187897,482.896301 
z" />
	<path fill="#159BE1" opacity="1.000000" stroke="none" d="
M53.601036,451.166748 
	C71.135178,442.145203 88.485054,433.433319 105.801857,424.656189 
	C117.061699,418.949066 128.321762,413.238098 139.472778,407.323456 
	C142.284180,405.832245 143.985550,406.061615 146.272644,408.366852 
	C170.769684,433.058014 195.389526,457.627350 220.113754,482.537872 
	C200.602005,482.897095 180.952194,482.981110 161.302368,482.993134 
	C122.830055,483.016693 84.357735,483.000092 45.885418,483.000092 
	C44.086281,483.000092 42.287144,483.000092 39.729866,483.000092 
	C44.450184,472.107544 48.926464,461.778137 53.601036,451.166748 
z" />
</svg>