<?xml version="1.0" encoding="iso-8859-1"?>
<!-- Uploaded to: SVG Repo, www.svgrepo.com, Generator: SVG Repo Mixer Tools -->
<!DOCTYPE svg PUBLIC "-//W3C//DTD SVG 1.1//EN" "http://www.w3.org/Graphics/SVG/1.1/DTD/svg11.dtd">
<svg fill="#000000" version="1.1" id="Capa_1" xmlns="http://www.w3.org/2000/svg" xmlns:xlink="http://www.w3.org/1999/xlink" 
	 width="800px" height="800px" viewBox="0 0 935.374 935.374"
	 xml:space="preserve">
<g>
	<g>
		<path d="M33.426,787.001L33.426,787.001l42.1-0.1c15.6,0,29-10.8,32.5-26l54.4-239l44.4-79.6v313c0,16,9.5,30.399,24.1,36.8
			c98.2,42.8,212.3,44.8,212.3,44.8l24.5-72.8l24.5,72.8c0,0,114.1-2,212.3-44.8c14.6-6.4,24.1-20.8,24.1-36.8v-313l44.4,79.6
			l54.4,239c3.5,15.2,16.899,25.9,32.5,26l42.1,0.1l0,0c20.3,0,35.9-17.899,33-38l-39.7-284.6c-1.2-8.3-3.5-16.3-6.8-23.9
			l-141.5-317.399c-6.5-14.5-20.8-23.8-36.7-23.8h-95.399l-147.201,330.8l-147.3-330.8h-95.4c-15.8,0-30.2,9.3-36.7,23.8
			l-141.4,317.399c-3.4,7.601-5.7,15.7-6.8,23.9l-39.8,284.6C-2.474,769.102,13.126,787.001,33.426,787.001z M466.526,479.001
			c12.401,0,22.401,10,22.401,22.4s-10,22.4-22.401,22.4c-12.4,0-22.4-10-22.4-22.4S454.226,479.001,466.526,479.001z
			 M466.526,574.402c12.401,0,22.401,10,22.401,22.4c0,12.399-10,22.399-22.401,22.399c-12.4,0-22.4-10-22.4-22.399
			C444.125,584.402,454.226,574.402,466.526,574.402z M466.526,669.702c12.401,0,22.401,10,22.401,22.4
			c0,12.399-10,22.399-22.401,22.399c-12.4,0-22.4-10-22.4-22.399C444.125,679.802,454.226,669.702,466.526,669.702z"/>
		<path d="M522.026,100.802l-54.401,28.7l-54.399-28.7c-13.4-7-29.4,2.6-29.4,17.8v39.5c0,0.5,0,1,0.101,1.5
			c0.399,4.9,2.399,9.1,5.5,12.3c5.899,6.1,15.399,8.4,23.899,3.9l54.4-28.7l54.4,28.7c8.5,4.5,18,2.2,23.9-3.9
			c3.1-3.2,5.1-7.4,5.5-12.3c0-0.5,0.1-1,0.1-1.5v-39.5C551.526,103.402,535.427,93.802,522.026,100.802z"/>
	</g>
</g>
</svg>